<mxfile host="app.diagrams.net" modified="2022-08-05T10:03:39.009Z" agent="5.0 (Macintosh; Intel Mac OS X 10_15_7) AppleWebKit/537.36 (KHTML, like Gecko) Chrome/103.0.0.0 Safari/537.36" etag="5PFrmAXJCkbbJg9lWtJ8" version="20.0.4" type="github">
  <diagram id="7HATM0ThNWwZE4hw1DRA" name="第 1 页">
    <mxGraphModel dx="946" dy="589" grid="1" gridSize="10" guides="1" tooltips="1" connect="1" arrows="1" fold="1" page="1" pageScale="1" pageWidth="827" pageHeight="1169" math="0" shadow="0">
      <root>
        <mxCell id="0" />
        <mxCell id="1" parent="0" />
        <mxCell id="uuCEsOSD1aODRNNXXdCF-23" value="接口转换" style="rounded=1;whiteSpace=wrap;html=1;shadow=0;dashed=1;verticalAlign=top;" vertex="1" parent="1">
          <mxGeometry x="420" y="260" width="190" height="290" as="geometry" />
        </mxCell>
        <mxCell id="uuCEsOSD1aODRNNXXdCF-10" style="edgeStyle=orthogonalEdgeStyle;rounded=0;orthogonalLoop=1;jettySize=auto;html=1;exitX=0;exitY=0.5;exitDx=0;exitDy=0;entryX=1;entryY=0.5;entryDx=0;entryDy=0;" edge="1" parent="1" source="uuCEsOSD1aODRNNXXdCF-1" target="uuCEsOSD1aODRNNXXdCF-7">
          <mxGeometry relative="1" as="geometry" />
        </mxCell>
        <mxCell id="uuCEsOSD1aODRNNXXdCF-13" style="edgeStyle=orthogonalEdgeStyle;rounded=0;orthogonalLoop=1;jettySize=auto;html=1;exitX=1;exitY=0.5;exitDx=0;exitDy=0;entryX=0;entryY=0.5;entryDx=0;entryDy=0;" edge="1" parent="1" source="uuCEsOSD1aODRNNXXdCF-1" target="uuCEsOSD1aODRNNXXdCF-2">
          <mxGeometry relative="1" as="geometry" />
        </mxCell>
        <mxCell id="uuCEsOSD1aODRNNXXdCF-17" value="依赖" style="edgeLabel;html=1;align=center;verticalAlign=middle;resizable=0;points=[];" vertex="1" connectable="0" parent="uuCEsOSD1aODRNNXXdCF-13">
          <mxGeometry x="0.175" y="-1" relative="1" as="geometry">
            <mxPoint x="-7" y="-1" as="offset" />
          </mxGeometry>
        </mxCell>
        <mxCell id="uuCEsOSD1aODRNNXXdCF-1" value="适配器1" style="rounded=0;whiteSpace=wrap;html=1;fillColor=#fff2cc;strokeColor=#d6b656;" vertex="1" parent="1">
          <mxGeometry x="460" y="300" width="120" height="60" as="geometry" />
        </mxCell>
        <mxCell id="uuCEsOSD1aODRNNXXdCF-2" value="其他接口1" style="rounded=0;whiteSpace=wrap;html=1;fillColor=#e1d5e7;strokeColor=#9673a6;" vertex="1" parent="1">
          <mxGeometry x="660" y="300" width="120" height="60" as="geometry" />
        </mxCell>
        <mxCell id="uuCEsOSD1aODRNNXXdCF-11" style="edgeStyle=orthogonalEdgeStyle;rounded=0;orthogonalLoop=1;jettySize=auto;html=1;exitX=0;exitY=0.5;exitDx=0;exitDy=0;entryX=1;entryY=0.5;entryDx=0;entryDy=0;" edge="1" parent="1" source="uuCEsOSD1aODRNNXXdCF-3" target="uuCEsOSD1aODRNNXXdCF-7">
          <mxGeometry relative="1" as="geometry" />
        </mxCell>
        <mxCell id="uuCEsOSD1aODRNNXXdCF-14" style="edgeStyle=orthogonalEdgeStyle;rounded=0;orthogonalLoop=1;jettySize=auto;html=1;exitX=1;exitY=0.5;exitDx=0;exitDy=0;" edge="1" parent="1" source="uuCEsOSD1aODRNNXXdCF-3" target="uuCEsOSD1aODRNNXXdCF-5">
          <mxGeometry relative="1" as="geometry" />
        </mxCell>
        <mxCell id="uuCEsOSD1aODRNNXXdCF-18" value="依赖" style="edgeLabel;html=1;align=center;verticalAlign=middle;resizable=0;points=[];" vertex="1" connectable="0" parent="uuCEsOSD1aODRNNXXdCF-14">
          <mxGeometry x="-0.15" y="-3" relative="1" as="geometry">
            <mxPoint x="6" y="-3" as="offset" />
          </mxGeometry>
        </mxCell>
        <mxCell id="uuCEsOSD1aODRNNXXdCF-3" value="适配器2" style="rounded=0;whiteSpace=wrap;html=1;fillColor=#fff2cc;strokeColor=#d6b656;" vertex="1" parent="1">
          <mxGeometry x="460" y="380" width="120" height="60" as="geometry" />
        </mxCell>
        <mxCell id="uuCEsOSD1aODRNNXXdCF-12" style="edgeStyle=orthogonalEdgeStyle;rounded=0;orthogonalLoop=1;jettySize=auto;html=1;exitX=0;exitY=0.5;exitDx=0;exitDy=0;entryX=1;entryY=0.5;entryDx=0;entryDy=0;" edge="1" parent="1" source="uuCEsOSD1aODRNNXXdCF-4" target="uuCEsOSD1aODRNNXXdCF-7">
          <mxGeometry relative="1" as="geometry" />
        </mxCell>
        <mxCell id="uuCEsOSD1aODRNNXXdCF-22" value="实现" style="edgeLabel;html=1;align=center;verticalAlign=middle;resizable=0;points=[];" vertex="1" connectable="0" parent="uuCEsOSD1aODRNNXXdCF-12">
          <mxGeometry x="0.5857" y="-3" relative="1" as="geometry">
            <mxPoint as="offset" />
          </mxGeometry>
        </mxCell>
        <mxCell id="uuCEsOSD1aODRNNXXdCF-15" style="edgeStyle=orthogonalEdgeStyle;rounded=0;orthogonalLoop=1;jettySize=auto;html=1;exitX=1;exitY=0.5;exitDx=0;exitDy=0;entryX=0;entryY=0.5;entryDx=0;entryDy=0;" edge="1" parent="1" source="uuCEsOSD1aODRNNXXdCF-4" target="uuCEsOSD1aODRNNXXdCF-6">
          <mxGeometry relative="1" as="geometry" />
        </mxCell>
        <mxCell id="uuCEsOSD1aODRNNXXdCF-19" value="依赖" style="edgeLabel;html=1;align=center;verticalAlign=middle;resizable=0;points=[];" vertex="1" connectable="0" parent="uuCEsOSD1aODRNNXXdCF-15">
          <mxGeometry x="-0.025" relative="1" as="geometry">
            <mxPoint as="offset" />
          </mxGeometry>
        </mxCell>
        <mxCell id="uuCEsOSD1aODRNNXXdCF-4" value="适配器3" style="rounded=0;whiteSpace=wrap;html=1;fillColor=#fff2cc;strokeColor=#d6b656;" vertex="1" parent="1">
          <mxGeometry x="460" y="460" width="120" height="60" as="geometry" />
        </mxCell>
        <mxCell id="uuCEsOSD1aODRNNXXdCF-5" value="其他接口2" style="rounded=0;whiteSpace=wrap;html=1;fillColor=#e1d5e7;strokeColor=#9673a6;" vertex="1" parent="1">
          <mxGeometry x="660" y="380" width="120" height="60" as="geometry" />
        </mxCell>
        <mxCell id="uuCEsOSD1aODRNNXXdCF-6" value="其他接口3" style="rounded=0;whiteSpace=wrap;html=1;fillColor=#e1d5e7;strokeColor=#9673a6;" vertex="1" parent="1">
          <mxGeometry x="660" y="460" width="120" height="60" as="geometry" />
        </mxCell>
        <mxCell id="uuCEsOSD1aODRNNXXdCF-7" value="业务接口" style="rounded=0;whiteSpace=wrap;html=1;fillColor=#dae8fc;strokeColor=#6c8ebf;" vertex="1" parent="1">
          <mxGeometry x="320" y="300" width="80" height="220" as="geometry" />
        </mxCell>
        <mxCell id="uuCEsOSD1aODRNNXXdCF-9" style="edgeStyle=orthogonalEdgeStyle;rounded=0;orthogonalLoop=1;jettySize=auto;html=1;exitX=1;exitY=0.5;exitDx=0;exitDy=0;" edge="1" parent="1" source="uuCEsOSD1aODRNNXXdCF-8" target="uuCEsOSD1aODRNNXXdCF-7">
          <mxGeometry relative="1" as="geometry" />
        </mxCell>
        <mxCell id="uuCEsOSD1aODRNNXXdCF-16" value="依赖" style="edgeLabel;html=1;align=center;verticalAlign=middle;resizable=0;points=[];" vertex="1" connectable="0" parent="uuCEsOSD1aODRNNXXdCF-9">
          <mxGeometry x="-0.2" y="-2" relative="1" as="geometry">
            <mxPoint y="-2" as="offset" />
          </mxGeometry>
        </mxCell>
        <mxCell id="uuCEsOSD1aODRNNXXdCF-8" value="业务代码" style="rounded=0;whiteSpace=wrap;html=1;fillColor=#d5e8d4;strokeColor=#82b366;" vertex="1" parent="1">
          <mxGeometry x="150" y="380" width="110" height="60" as="geometry" />
        </mxCell>
      </root>
    </mxGraphModel>
  </diagram>
</mxfile>
